<svg width="237" height="488" viewBox="0 0 237 488" fill="none" xmlns="http://www.w3.org/2000/svg">
<g clip-path="url(#clip0)">
<path d="M92 385.5L158.871 394.5L175.5 410.968L133.5 434L92 385.5Z" fill="#DFDEDE" fill-opacity="0.5"/>
<path d="M158.871 394.5L257 364L195.5 400L133.5 434L158.871 394.5Z" fill="#DFDEDE" fill-opacity="0.5"/>
<path d="M-35 203.423L27.3707 198L52 235.812L13.9416 245L-35 203.423Z" fill="#DFDEDE" fill-opacity="0.5"/>
<path d="M27.3707 198L118 198L111.285 221.5L13.9416 245L27.3707 198Z" fill="#DFDEDE" fill-opacity="0.5"/>
<path d="M118 109.474L165.39 97.2479L193.745 108.601L181.721 130.293L118 109.474Z" fill="#DFDEDE" fill-opacity="0.5"/>
<path d="M165.39 97.2479L251.625 75L216.782 132.091L181.721 130.293L165.39 97.2479Z" fill="#DFDEDE" fill-opacity="0.5"/>
<circle cx="0.375" cy="215.219" r="0.375" fill="#C4C4C4"/>
<circle cx="0.375" cy="89.2968" r="0.375" fill="#C4C4C4"/>
<circle cx="0.375" cy="341.14" r="0.375" fill="#C4C4C4"/>
<circle cx="0.375" cy="26.3359" r="0.375" fill="#C4C4C4"/>
<circle cx="0.375" cy="278.179" r="0.375" fill="#C4C4C4"/>
<circle cx="0.375" cy="152.258" r="0.375" fill="#C4C4C4"/>
<circle cx="0.375" cy="404.101" r="0.375" fill="#C4C4C4"/>
<circle cx="0.375" cy="246.699" r="0.375" fill="#C4C4C4"/>
<circle cx="0.375" cy="120.777" r="0.375" fill="#C4C4C4"/>
<circle cx="0.375" cy="372.621" r="0.375" fill="#C4C4C4"/>
<circle cx="0.375" cy="57.8163" r="0.375" fill="#C4C4C4"/>
<circle cx="0.375" cy="309.66" r="0.375" fill="#C4C4C4"/>
<circle cx="0.375" cy="183.738" r="0.375" fill="#C4C4C4"/>
<circle cx="0.375" cy="435.582" r="0.375" fill="#C4C4C4"/>
<circle cx="0.375" cy="230.959" r="0.375" fill="#C4C4C4"/>
<circle cx="0.375" cy="105.037" r="0.375" fill="#C4C4C4"/>
<circle cx="0.375" cy="356.881" r="0.375" fill="#C4C4C4"/>
<circle cx="0.375" cy="42.0761" r="0.375" fill="#C4C4C4"/>
<circle cx="0.375" cy="293.92" r="0.375" fill="#C4C4C4"/>
<circle cx="0.375" cy="167.998" r="0.375" fill="#C4C4C4"/>
<circle cx="0.375" cy="419.841" r="0.375" fill="#C4C4C4"/>
<circle cx="0.375" cy="10.5956" r="0.375" fill="#C4C4C4"/>
<circle cx="0.375" cy="262.439" r="0.375" fill="#C4C4C4"/>
<circle cx="0.375" cy="136.517" r="0.375" fill="#C4C4C4"/>
<circle cx="0.375" cy="388.361" r="0.375" fill="#C4C4C4"/>
<circle cx="0.375" cy="73.5566" r="0.375" fill="#C4C4C4"/>
<circle cx="0.375" cy="325.4" r="0.375" fill="#C4C4C4"/>
<circle cx="0.375" cy="199.478" r="0.375" fill="#C4C4C4"/>
<circle cx="0.375" cy="451.322" r="0.375" fill="#C4C4C4"/>
<circle cx="63.3359" cy="215.219" r="0.375" fill="#C4C4C4"/>
<circle cx="63.3359" cy="89.2968" r="0.375" fill="#C4C4C4"/>
<circle cx="63.3359" cy="341.14" r="0.375" fill="#C4C4C4"/>
<circle cx="63.3359" cy="26.3359" r="0.375" fill="#C4C4C4"/>
<circle cx="63.3359" cy="278.179" r="0.375" fill="#C4C4C4"/>
<circle cx="63.3359" cy="152.258" r="0.375" fill="#C4C4C4"/>
<circle cx="63.3359" cy="404.101" r="0.375" fill="#C4C4C4"/>
<circle cx="63.3359" cy="246.699" r="0.375" fill="#C4C4C4"/>
<circle cx="63.3359" cy="120.777" r="0.375" fill="#C4C4C4"/>
<circle cx="63.3359" cy="372.621" r="0.375" fill="#C4C4C4"/>
<circle cx="63.3359" cy="57.8163" r="0.375" fill="#C4C4C4"/>
<circle cx="63.3359" cy="309.66" r="0.375" fill="#C4C4C4"/>
<circle cx="63.3359" cy="183.738" r="0.375" fill="#C4C4C4"/>
<circle cx="63.3359" cy="435.582" r="0.375" fill="#C4C4C4"/>
<circle cx="63.3359" cy="230.959" r="0.375" fill="#C4C4C4"/>
<circle cx="63.3359" cy="105.037" r="0.375" fill="#C4C4C4"/>
<circle cx="63.3359" cy="356.881" r="0.375" fill="#C4C4C4"/>
<circle cx="63.3359" cy="42.0761" r="0.375" fill="#C4C4C4"/>
<circle cx="63.3359" cy="293.92" r="0.375" fill="#C4C4C4"/>
<circle cx="63.3359" cy="167.998" r="0.375" fill="#C4C4C4"/>
<circle cx="63.3359" cy="419.841" r="0.375" fill="#C4C4C4"/>
<circle cx="63.3359" cy="10.5956" r="0.375" fill="#C4C4C4"/>
<circle cx="63.3359" cy="262.439" r="0.375" fill="#C4C4C4"/>
<circle cx="63.3359" cy="136.517" r="0.375" fill="#C4C4C4"/>
<circle cx="63.3359" cy="388.361" r="0.375" fill="#C4C4C4"/>
<circle cx="63.3359" cy="73.5566" r="0.375" fill="#C4C4C4"/>
<circle cx="63.3359" cy="325.4" r="0.375" fill="#C4C4C4"/>
<circle cx="63.3359" cy="199.478" r="0.375" fill="#C4C4C4"/>
<circle cx="63.3359" cy="451.322" r="0.375" fill="#C4C4C4"/>
<circle cx="16.1152" cy="215.219" r="0.375" fill="#C4C4C4"/>
<circle cx="16.1152" cy="89.2968" r="0.375" fill="#C4C4C4"/>
<circle cx="16.1152" cy="341.14" r="0.375" fill="#C4C4C4"/>
<circle cx="16.1152" cy="26.3359" r="0.375" fill="#C4C4C4"/>
<circle cx="16.1152" cy="278.179" r="0.375" fill="#C4C4C4"/>
<circle cx="16.1152" cy="152.258" r="0.375" fill="#C4C4C4"/>
<circle cx="16.1152" cy="404.101" r="0.375" fill="#C4C4C4"/>
<circle cx="16.1152" cy="246.699" r="0.375" fill="#C4C4C4"/>
<circle cx="16.1152" cy="120.777" r="0.375" fill="#C4C4C4"/>
<circle cx="16.1152" cy="372.621" r="0.375" fill="#C4C4C4"/>
<circle cx="16.1152" cy="57.8163" r="0.375" fill="#C4C4C4"/>
<circle cx="16.1152" cy="309.66" r="0.375" fill="#C4C4C4"/>
<circle cx="16.1152" cy="183.738" r="0.375" fill="#C4C4C4"/>
<circle cx="16.1152" cy="435.582" r="0.375" fill="#C4C4C4"/>
<circle cx="16.1152" cy="230.959" r="0.375" fill="#C4C4C4"/>
<circle cx="16.1152" cy="105.037" r="0.375" fill="#C4C4C4"/>
<circle cx="16.1152" cy="356.881" r="0.375" fill="#C4C4C4"/>
<circle cx="16.1152" cy="42.0761" r="0.375" fill="#C4C4C4"/>
<circle cx="16.1152" cy="293.92" r="0.375" fill="#C4C4C4"/>
<circle cx="16.1152" cy="167.998" r="0.375" fill="#C4C4C4"/>
<circle cx="16.1152" cy="419.841" r="0.375" fill="#C4C4C4"/>
<circle cx="16.1152" cy="10.5956" r="0.375" fill="#C4C4C4"/>
<circle cx="16.1152" cy="262.439" r="0.375" fill="#C4C4C4"/>
<circle cx="16.1152" cy="136.517" r="0.375" fill="#C4C4C4"/>
<circle cx="16.1152" cy="388.361" r="0.375" fill="#C4C4C4"/>
<circle cx="16.1152" cy="73.5566" r="0.375" fill="#C4C4C4"/>
<circle cx="16.1152" cy="325.4" r="0.375" fill="#C4C4C4"/>
<circle cx="16.1152" cy="199.478" r="0.375" fill="#C4C4C4"/>
<circle cx="16.1152" cy="451.322" r="0.375" fill="#C4C4C4"/>
<circle cx="79.0761" cy="215.219" r="0.375" fill="#C4C4C4"/>
<circle cx="79.0761" cy="89.2968" r="0.375" fill="#C4C4C4"/>
<circle cx="79.0761" cy="341.14" r="0.375" fill="#C4C4C4"/>
<circle cx="79.0761" cy="26.3359" r="0.375" fill="#C4C4C4"/>
<circle cx="79.0761" cy="278.179" r="0.375" fill="#C4C4C4"/>
<circle cx="79.0761" cy="152.258" r="0.375" fill="#C4C4C4"/>
<circle cx="79.0761" cy="404.101" r="0.375" fill="#C4C4C4"/>
<circle cx="79.0761" cy="246.699" r="0.375" fill="#C4C4C4"/>
<circle cx="79.0761" cy="120.777" r="0.375" fill="#C4C4C4"/>
<circle cx="79.0761" cy="372.621" r="0.375" fill="#C4C4C4"/>
<circle cx="79.0761" cy="57.8163" r="0.375" fill="#C4C4C4"/>
<circle cx="79.0761" cy="309.66" r="0.375" fill="#C4C4C4"/>
<circle cx="79.0761" cy="183.738" r="0.375" fill="#C4C4C4"/>
<circle cx="79.0761" cy="435.582" r="0.375" fill="#C4C4C4"/>
<circle cx="79.0761" cy="230.959" r="0.375" fill="#C4C4C4"/>
<circle cx="79.0761" cy="105.037" r="0.375" fill="#C4C4C4"/>
<circle cx="79.0761" cy="356.881" r="0.375" fill="#C4C4C4"/>
<circle cx="79.0761" cy="42.0761" r="0.375" fill="#C4C4C4"/>
<circle cx="79.0761" cy="293.92" r="0.375" fill="#C4C4C4"/>
<circle cx="79.0761" cy="167.998" r="0.375" fill="#C4C4C4"/>
<circle cx="79.0761" cy="419.841" r="0.375" fill="#C4C4C4"/>
<circle cx="79.0761" cy="10.5956" r="0.375" fill="#C4C4C4"/>
<circle cx="79.0761" cy="262.439" r="0.375" fill="#C4C4C4"/>
<circle cx="79.0761" cy="136.517" r="0.375" fill="#C4C4C4"/>
<circle cx="79.0761" cy="388.361" r="0.375" fill="#C4C4C4"/>
<circle cx="79.0761" cy="73.5566" r="0.375" fill="#C4C4C4"/>
<circle cx="79.0761" cy="325.4" r="0.375" fill="#C4C4C4"/>
<circle cx="79.0761" cy="199.478" r="0.375" fill="#C4C4C4"/>
<circle cx="79.0761" cy="451.322" r="0.375" fill="#C4C4C4"/>
<circle cx="31.8554" cy="215.219" r="0.375" fill="#C4C4C4"/>
<circle cx="31.8554" cy="89.2968" r="0.375" fill="#C4C4C4"/>
<circle cx="31.8554" cy="341.14" r="0.375" fill="#C4C4C4"/>
<circle cx="31.8554" cy="26.3359" r="0.375" fill="#C4C4C4"/>
<circle cx="31.8554" cy="278.179" r="0.375" fill="#C4C4C4"/>
<circle cx="31.8554" cy="152.258" r="0.375" fill="#C4C4C4"/>
<circle cx="31.8554" cy="404.101" r="0.375" fill="#C4C4C4"/>
<circle cx="31.8554" cy="246.699" r="0.375" fill="#C4C4C4"/>
<circle cx="31.8554" cy="120.777" r="0.375" fill="#C4C4C4"/>
<circle cx="31.8554" cy="372.621" r="0.375" fill="#C4C4C4"/>
<circle cx="31.8554" cy="57.8163" r="0.375" fill="#C4C4C4"/>
<circle cx="31.8554" cy="309.66" r="0.375" fill="#C4C4C4"/>
<circle cx="31.8554" cy="183.738" r="0.375" fill="#C4C4C4"/>
<circle cx="31.8554" cy="435.582" r="0.375" fill="#C4C4C4"/>
<circle cx="31.8554" cy="230.959" r="0.375" fill="#C4C4C4"/>
<circle cx="31.8554" cy="105.037" r="0.375" fill="#C4C4C4"/>
<circle cx="31.8554" cy="356.881" r="0.375" fill="#C4C4C4"/>
<circle cx="31.8554" cy="42.0761" r="0.375" fill="#C4C4C4"/>
<circle cx="31.8554" cy="293.92" r="0.375" fill="#C4C4C4"/>
<circle cx="31.8554" cy="167.998" r="0.375" fill="#C4C4C4"/>
<circle cx="31.8554" cy="419.841" r="0.375" fill="#C4C4C4"/>
<circle cx="31.8554" cy="10.5956" r="0.375" fill="#C4C4C4"/>
<circle cx="31.8554" cy="262.439" r="0.375" fill="#C4C4C4"/>
<circle cx="31.8554" cy="136.517" r="0.375" fill="#C4C4C4"/>
<circle cx="31.8554" cy="388.361" r="0.375" fill="#C4C4C4"/>
<circle cx="31.8554" cy="73.5566" r="0.375" fill="#C4C4C4"/>
<circle cx="31.8554" cy="325.4" r="0.375" fill="#C4C4C4"/>
<circle cx="31.8554" cy="199.478" r="0.375" fill="#C4C4C4"/>
<circle cx="31.8554" cy="451.322" r="0.375" fill="#C4C4C4"/>
<circle cx="94.8163" cy="215.219" r="0.375" fill="#C4C4C4"/>
<circle cx="94.8163" cy="89.2968" r="0.375" fill="#C4C4C4"/>
<circle cx="94.8163" cy="341.14" r="0.375" fill="#C4C4C4"/>
<circle cx="94.8163" cy="26.3359" r="0.375" fill="#C4C4C4"/>
<circle cx="94.8163" cy="278.179" r="0.375" fill="#C4C4C4"/>
<circle cx="94.8163" cy="152.258" r="0.375" fill="#C4C4C4"/>
<circle cx="94.8163" cy="404.101" r="0.375" fill="#C4C4C4"/>
<circle cx="94.8163" cy="246.699" r="0.375" fill="#C4C4C4"/>
<circle cx="94.8163" cy="120.777" r="0.375" fill="#C4C4C4"/>
<circle cx="94.8163" cy="372.621" r="0.375" fill="#C4C4C4"/>
<circle cx="94.8163" cy="57.8163" r="0.375" fill="#C4C4C4"/>
<circle cx="94.8163" cy="309.66" r="0.375" fill="#C4C4C4"/>
<circle cx="94.8163" cy="183.738" r="0.375" fill="#C4C4C4"/>
<circle cx="94.8163" cy="435.582" r="0.375" fill="#C4C4C4"/>
<circle cx="94.8163" cy="230.959" r="0.375" fill="#C4C4C4"/>
<circle cx="94.8163" cy="105.037" r="0.375" fill="#C4C4C4"/>
<circle cx="94.8163" cy="356.881" r="0.375" fill="#C4C4C4"/>
<circle cx="94.8163" cy="42.0761" r="0.375" fill="#C4C4C4"/>
<circle cx="94.8163" cy="293.92" r="0.375" fill="#C4C4C4"/>
<circle cx="94.8163" cy="167.998" r="0.375" fill="#C4C4C4"/>
<circle cx="94.8163" cy="419.841" r="0.375" fill="#C4C4C4"/>
<circle cx="94.8163" cy="10.5956" r="0.375" fill="#C4C4C4"/>
<circle cx="94.8163" cy="262.439" r="0.375" fill="#C4C4C4"/>
<circle cx="94.8163" cy="136.517" r="0.375" fill="#C4C4C4"/>
<circle cx="94.8163" cy="388.361" r="0.375" fill="#C4C4C4"/>
<circle cx="94.8163" cy="73.5566" r="0.375" fill="#C4C4C4"/>
<circle cx="94.8163" cy="325.4" r="0.375" fill="#C4C4C4"/>
<circle cx="94.8163" cy="199.478" r="0.375" fill="#C4C4C4"/>
<circle cx="94.8163" cy="451.322" r="0.375" fill="#C4C4C4"/>
<circle cx="47.5956" cy="215.219" r="0.375" fill="#C4C4C4"/>
<circle cx="47.5956" cy="89.2968" r="0.375" fill="#C4C4C4"/>
<circle cx="47.5956" cy="341.14" r="0.375" fill="#C4C4C4"/>
<circle cx="47.5956" cy="26.3359" r="0.375" fill="#C4C4C4"/>
<circle cx="47.5956" cy="278.179" r="0.375" fill="#C4C4C4"/>
<circle cx="47.5956" cy="152.258" r="0.375" fill="#C4C4C4"/>
<circle cx="47.5956" cy="404.101" r="0.375" fill="#C4C4C4"/>
<circle cx="47.5956" cy="246.699" r="0.375" fill="#C4C4C4"/>
<circle cx="47.5956" cy="120.777" r="0.375" fill="#C4C4C4"/>
<circle cx="47.5956" cy="372.621" r="0.375" fill="#C4C4C4"/>
<circle cx="47.5956" cy="57.8163" r="0.375" fill="#C4C4C4"/>
<circle cx="47.5956" cy="309.66" r="0.375" fill="#C4C4C4"/>
<circle cx="47.5956" cy="183.738" r="0.375" fill="#C4C4C4"/>
<circle cx="47.5956" cy="435.582" r="0.375" fill="#C4C4C4"/>
<circle cx="47.5956" cy="230.959" r="0.375" fill="#C4C4C4"/>
<circle cx="47.5956" cy="105.037" r="0.375" fill="#C4C4C4"/>
<circle cx="47.5956" cy="356.881" r="0.375" fill="#C4C4C4"/>
<circle cx="47.5956" cy="42.0761" r="0.375" fill="#C4C4C4"/>
<circle cx="47.5956" cy="293.92" r="0.375" fill="#C4C4C4"/>
<circle cx="47.5956" cy="167.998" r="0.375" fill="#C4C4C4"/>
<circle cx="47.5956" cy="419.841" r="0.375" fill="#C4C4C4"/>
<circle cx="47.5956" cy="10.5956" r="0.375" fill="#C4C4C4"/>
<circle cx="47.5956" cy="262.439" r="0.375" fill="#C4C4C4"/>
<circle cx="47.5956" cy="136.517" r="0.375" fill="#C4C4C4"/>
<circle cx="47.5956" cy="388.361" r="0.375" fill="#C4C4C4"/>
<circle cx="47.5956" cy="73.5566" r="0.375" fill="#C4C4C4"/>
<circle cx="47.5956" cy="325.4" r="0.375" fill="#C4C4C4"/>
<circle cx="47.5956" cy="199.478" r="0.375" fill="#C4C4C4"/>
<circle cx="47.5956" cy="451.322" r="0.375" fill="#C4C4C4"/>
<circle cx="110.557" cy="215.219" r="0.375" fill="#C4C4C4"/>
<circle cx="110.557" cy="89.2968" r="0.375" fill="#C4C4C4"/>
<circle cx="110.557" cy="341.14" r="0.375" fill="#C4C4C4"/>
<circle cx="110.557" cy="26.3359" r="0.375" fill="#C4C4C4"/>
<circle cx="110.557" cy="278.179" r="0.375" fill="#C4C4C4"/>
<circle cx="110.557" cy="152.258" r="0.375" fill="#C4C4C4"/>
<circle cx="110.557" cy="404.101" r="0.375" fill="#C4C4C4"/>
<circle cx="110.557" cy="246.699" r="0.375" fill="#C4C4C4"/>
<circle cx="110.557" cy="120.777" r="0.375" fill="#C4C4C4"/>
<circle cx="110.557" cy="372.621" r="0.375" fill="#C4C4C4"/>
<circle cx="110.557" cy="57.8163" r="0.375" fill="#C4C4C4"/>
<circle cx="110.557" cy="309.66" r="0.375" fill="#C4C4C4"/>
<circle cx="110.557" cy="183.738" r="0.375" fill="#C4C4C4"/>
<circle cx="110.557" cy="435.582" r="0.375" fill="#C4C4C4"/>
<circle cx="110.557" cy="230.959" r="0.375" fill="#C4C4C4"/>
<circle cx="110.557" cy="105.037" r="0.375" fill="#C4C4C4"/>
<circle cx="110.557" cy="356.881" r="0.375" fill="#C4C4C4"/>
<circle cx="110.557" cy="42.0761" r="0.375" fill="#C4C4C4"/>
<circle cx="110.557" cy="293.92" r="0.375" fill="#C4C4C4"/>
<circle cx="110.557" cy="167.998" r="0.375" fill="#C4C4C4"/>
<circle cx="110.557" cy="419.841" r="0.375" fill="#C4C4C4"/>
<circle cx="110.557" cy="10.5956" r="0.375" fill="#C4C4C4"/>
<circle cx="110.557" cy="262.439" r="0.375" fill="#C4C4C4"/>
<circle cx="110.557" cy="136.517" r="0.375" fill="#C4C4C4"/>
<circle cx="110.557" cy="388.361" r="0.375" fill="#C4C4C4"/>
<circle cx="110.557" cy="73.5566" r="0.375" fill="#C4C4C4"/>
<circle cx="110.557" cy="325.4" r="0.375" fill="#C4C4C4"/>
<circle cx="110.557" cy="199.478" r="0.375" fill="#C4C4C4"/>
<circle cx="110.557" cy="451.322" r="0.375" fill="#C4C4C4"/>
<circle cx="126.297" cy="215.219" r="0.375" fill="#C4C4C4"/>
<circle cx="126.297" cy="89.2968" r="0.375" fill="#C4C4C4"/>
<circle cx="126.297" cy="341.14" r="0.375" fill="#C4C4C4"/>
<circle cx="126.297" cy="26.3359" r="0.375" fill="#C4C4C4"/>
<circle cx="126.297" cy="278.179" r="0.375" fill="#C4C4C4"/>
<circle cx="126.297" cy="152.258" r="0.375" fill="#C4C4C4"/>
<circle cx="126.297" cy="404.101" r="0.375" fill="#C4C4C4"/>
<circle cx="126.297" cy="246.699" r="0.375" fill="#C4C4C4"/>
<circle cx="126.297" cy="120.777" r="0.375" fill="#C4C4C4"/>
<circle cx="126.297" cy="372.621" r="0.375" fill="#C4C4C4"/>
<circle cx="126.297" cy="57.8163" r="0.375" fill="#C4C4C4"/>
<circle cx="126.297" cy="309.66" r="0.375" fill="#C4C4C4"/>
<circle cx="126.297" cy="183.738" r="0.375" fill="#C4C4C4"/>
<circle cx="126.297" cy="435.582" r="0.375" fill="#C4C4C4"/>
<circle cx="126.297" cy="230.959" r="0.375" fill="#C4C4C4"/>
<circle cx="126.297" cy="105.037" r="0.375" fill="#C4C4C4"/>
<circle cx="126.297" cy="356.881" r="0.375" fill="#C4C4C4"/>
<circle cx="126.297" cy="42.0761" r="0.375" fill="#C4C4C4"/>
<circle cx="126.297" cy="293.92" r="0.375" fill="#C4C4C4"/>
<circle cx="126.297" cy="167.998" r="0.375" fill="#C4C4C4"/>
<circle cx="126.297" cy="419.841" r="0.375" fill="#C4C4C4"/>
<circle cx="126.297" cy="10.5956" r="0.375" fill="#C4C4C4"/>
<circle cx="126.297" cy="262.439" r="0.375" fill="#C4C4C4"/>
<circle cx="126.297" cy="136.517" r="0.375" fill="#C4C4C4"/>
<circle cx="126.297" cy="388.361" r="0.375" fill="#C4C4C4"/>
<circle cx="126.297" cy="73.5566" r="0.375" fill="#C4C4C4"/>
<circle cx="126.297" cy="325.4" r="0.375" fill="#C4C4C4"/>
<circle cx="126.297" cy="199.478" r="0.375" fill="#C4C4C4"/>
<circle cx="126.297" cy="451.322" r="0.375" fill="#C4C4C4"/>
<circle cx="189.258" cy="215.219" r="0.375" fill="#C4C4C4"/>
<circle cx="189.258" cy="89.2968" r="0.375" fill="#C4C4C4"/>
<circle cx="189.258" cy="341.14" r="0.375" fill="#C4C4C4"/>
<circle cx="189.258" cy="26.3359" r="0.375" fill="#C4C4C4"/>
<circle cx="189.258" cy="278.179" r="0.375" fill="#C4C4C4"/>
<circle cx="189.258" cy="152.258" r="0.375" fill="#C4C4C4"/>
<circle cx="189.258" cy="404.101" r="0.375" fill="#C4C4C4"/>
<circle cx="189.258" cy="246.699" r="0.375" fill="#C4C4C4"/>
<circle cx="189.258" cy="120.777" r="0.375" fill="#C4C4C4"/>
<circle cx="189.258" cy="372.621" r="0.375" fill="#C4C4C4"/>
<circle cx="189.258" cy="57.8163" r="0.375" fill="#C4C4C4"/>
<circle cx="189.258" cy="309.66" r="0.375" fill="#C4C4C4"/>
<circle cx="189.258" cy="183.738" r="0.375" fill="#C4C4C4"/>
<circle cx="189.258" cy="435.582" r="0.375" fill="#C4C4C4"/>
<circle cx="189.258" cy="230.959" r="0.375" fill="#C4C4C4"/>
<circle cx="189.258" cy="105.037" r="0.375" fill="#C4C4C4"/>
<circle cx="189.258" cy="356.881" r="0.375" fill="#C4C4C4"/>
<circle cx="189.258" cy="42.0761" r="0.375" fill="#C4C4C4"/>
<circle cx="189.258" cy="293.92" r="0.375" fill="#C4C4C4"/>
<circle cx="189.258" cy="167.998" r="0.375" fill="#C4C4C4"/>
<circle cx="189.258" cy="419.841" r="0.375" fill="#C4C4C4"/>
<circle cx="189.258" cy="10.5956" r="0.375" fill="#C4C4C4"/>
<circle cx="189.258" cy="262.439" r="0.375" fill="#C4C4C4"/>
<circle cx="189.258" cy="136.517" r="0.375" fill="#C4C4C4"/>
<circle cx="189.258" cy="388.361" r="0.375" fill="#C4C4C4"/>
<circle cx="189.258" cy="73.5566" r="0.375" fill="#C4C4C4"/>
<circle cx="189.258" cy="325.4" r="0.375" fill="#C4C4C4"/>
<circle cx="189.258" cy="199.478" r="0.375" fill="#C4C4C4"/>
<circle cx="189.258" cy="451.322" r="0.375" fill="#C4C4C4"/>
<circle cx="142.037" cy="215.219" r="0.375" fill="#C4C4C4"/>
<circle cx="142.037" cy="89.2968" r="0.375" fill="#C4C4C4"/>
<circle cx="142.037" cy="341.14" r="0.375" fill="#C4C4C4"/>
<circle cx="142.037" cy="26.3359" r="0.375" fill="#C4C4C4"/>
<circle cx="142.037" cy="278.179" r="0.375" fill="#C4C4C4"/>
<circle cx="142.037" cy="152.258" r="0.375" fill="#C4C4C4"/>
<circle cx="142.037" cy="404.101" r="0.375" fill="#C4C4C4"/>
<circle cx="142.037" cy="246.699" r="0.375" fill="#C4C4C4"/>
<circle cx="142.037" cy="120.777" r="0.375" fill="#C4C4C4"/>
<circle cx="142.037" cy="372.621" r="0.375" fill="#C4C4C4"/>
<circle cx="142.037" cy="57.8163" r="0.375" fill="#C4C4C4"/>
<circle cx="142.037" cy="309.66" r="0.375" fill="#C4C4C4"/>
<circle cx="142.037" cy="183.738" r="0.375" fill="#C4C4C4"/>
<circle cx="142.037" cy="435.582" r="0.375" fill="#C4C4C4"/>
<circle cx="142.037" cy="230.959" r="0.375" fill="#C4C4C4"/>
<circle cx="142.037" cy="105.037" r="0.375" fill="#C4C4C4"/>
<circle cx="142.037" cy="356.881" r="0.375" fill="#C4C4C4"/>
<circle cx="142.037" cy="42.0761" r="0.375" fill="#C4C4C4"/>
<circle cx="142.037" cy="293.92" r="0.375" fill="#C4C4C4"/>
<circle cx="142.037" cy="167.998" r="0.375" fill="#C4C4C4"/>
<circle cx="142.037" cy="419.841" r="0.375" fill="#C4C4C4"/>
<circle cx="142.037" cy="10.5956" r="0.375" fill="#C4C4C4"/>
<circle cx="142.037" cy="262.439" r="0.375" fill="#C4C4C4"/>
<circle cx="142.037" cy="136.517" r="0.375" fill="#C4C4C4"/>
<circle cx="142.037" cy="388.361" r="0.375" fill="#C4C4C4"/>
<circle cx="142.037" cy="73.5566" r="0.375" fill="#C4C4C4"/>
<circle cx="142.037" cy="325.4" r="0.375" fill="#C4C4C4"/>
<circle cx="142.037" cy="199.478" r="0.375" fill="#C4C4C4"/>
<circle cx="142.037" cy="451.322" r="0.375" fill="#C4C4C4"/>
<circle cx="204.998" cy="215.219" r="0.375" fill="#C4C4C4"/>
<circle cx="204.998" cy="89.2968" r="0.375" fill="#C4C4C4"/>
<circle cx="204.998" cy="341.14" r="0.375" fill="#C4C4C4"/>
<circle cx="204.998" cy="26.3359" r="0.375" fill="#C4C4C4"/>
<circle cx="204.998" cy="278.179" r="0.375" fill="#C4C4C4"/>
<circle cx="204.998" cy="152.258" r="0.375" fill="#C4C4C4"/>
<circle cx="204.998" cy="404.101" r="0.375" fill="#C4C4C4"/>
<circle cx="204.998" cy="246.699" r="0.375" fill="#C4C4C4"/>
<circle cx="204.998" cy="120.777" r="0.375" fill="#C4C4C4"/>
<circle cx="204.998" cy="372.621" r="0.375" fill="#C4C4C4"/>
<circle cx="204.998" cy="57.8163" r="0.375" fill="#C4C4C4"/>
<circle cx="204.998" cy="309.66" r="0.375" fill="#C4C4C4"/>
<circle cx="204.998" cy="183.738" r="0.375" fill="#C4C4C4"/>
<circle cx="204.998" cy="435.582" r="0.375" fill="#C4C4C4"/>
<circle cx="204.998" cy="230.959" r="0.375" fill="#C4C4C4"/>
<circle cx="204.998" cy="105.037" r="0.375" fill="#C4C4C4"/>
<circle cx="204.998" cy="356.881" r="0.375" fill="#C4C4C4"/>
<circle cx="204.998" cy="42.0761" r="0.375" fill="#C4C4C4"/>
<circle cx="204.998" cy="293.92" r="0.375" fill="#C4C4C4"/>
<circle cx="204.998" cy="167.998" r="0.375" fill="#C4C4C4"/>
<circle cx="204.998" cy="419.841" r="0.375" fill="#C4C4C4"/>
<circle cx="204.998" cy="10.5956" r="0.375" fill="#C4C4C4"/>
<circle cx="204.998" cy="262.439" r="0.375" fill="#C4C4C4"/>
<circle cx="204.998" cy="136.517" r="0.375" fill="#C4C4C4"/>
<circle cx="204.998" cy="388.361" r="0.375" fill="#C4C4C4"/>
<circle cx="204.998" cy="73.5566" r="0.375" fill="#C4C4C4"/>
<circle cx="204.998" cy="325.4" r="0.375" fill="#C4C4C4"/>
<circle cx="204.998" cy="199.478" r="0.375" fill="#C4C4C4"/>
<circle cx="204.998" cy="451.322" r="0.375" fill="#C4C4C4"/>
<circle cx="157.777" cy="215.219" r="0.375" fill="#C4C4C4"/>
<circle cx="157.777" cy="89.2968" r="0.375" fill="#C4C4C4"/>
<circle cx="157.777" cy="341.14" r="0.375" fill="#C4C4C4"/>
<circle cx="157.777" cy="26.3359" r="0.375" fill="#C4C4C4"/>
<circle cx="157.777" cy="278.179" r="0.375" fill="#C4C4C4"/>
<circle cx="157.777" cy="152.258" r="0.375" fill="#C4C4C4"/>
<circle cx="157.777" cy="404.101" r="0.375" fill="#C4C4C4"/>
<circle cx="157.777" cy="246.699" r="0.375" fill="#C4C4C4"/>
<circle cx="157.777" cy="120.777" r="0.375" fill="#C4C4C4"/>
<circle cx="157.777" cy="372.621" r="0.375" fill="#C4C4C4"/>
<circle cx="157.777" cy="57.8163" r="0.375" fill="#C4C4C4"/>
<circle cx="157.777" cy="309.66" r="0.375" fill="#C4C4C4"/>
<circle cx="157.777" cy="183.738" r="0.375" fill="#C4C4C4"/>
<circle cx="157.777" cy="435.582" r="0.375" fill="#C4C4C4"/>
<circle cx="157.777" cy="230.959" r="0.375" fill="#C4C4C4"/>
<circle cx="157.777" cy="105.037" r="0.375" fill="#C4C4C4"/>
<circle cx="157.777" cy="356.881" r="0.375" fill="#C4C4C4"/>
<circle cx="157.777" cy="42.0761" r="0.375" fill="#C4C4C4"/>
<circle cx="157.777" cy="293.92" r="0.375" fill="#C4C4C4"/>
<circle cx="157.777" cy="167.998" r="0.375" fill="#C4C4C4"/>
<circle cx="157.777" cy="419.841" r="0.375" fill="#C4C4C4"/>
<circle cx="157.777" cy="10.5956" r="0.375" fill="#C4C4C4"/>
<circle cx="157.777" cy="262.439" r="0.375" fill="#C4C4C4"/>
<circle cx="157.777" cy="136.517" r="0.375" fill="#C4C4C4"/>
<circle cx="157.777" cy="388.361" r="0.375" fill="#C4C4C4"/>
<circle cx="157.777" cy="73.5566" r="0.375" fill="#C4C4C4"/>
<circle cx="157.777" cy="325.4" r="0.375" fill="#C4C4C4"/>
<circle cx="157.777" cy="199.478" r="0.375" fill="#C4C4C4"/>
<circle cx="157.777" cy="451.322" r="0.375" fill="#C4C4C4"/>
<circle cx="220.738" cy="215.219" r="0.375" fill="#C4C4C4"/>
<circle cx="220.738" cy="89.2968" r="0.375" fill="#C4C4C4"/>
<circle cx="220.738" cy="341.14" r="0.375" fill="#C4C4C4"/>
<circle cx="220.738" cy="26.3359" r="0.375" fill="#C4C4C4"/>
<circle cx="220.738" cy="278.179" r="0.375" fill="#C4C4C4"/>
<circle cx="220.738" cy="152.258" r="0.375" fill="#C4C4C4"/>
<circle cx="220.738" cy="404.101" r="0.375" fill="#C4C4C4"/>
<circle cx="220.738" cy="246.699" r="0.375" fill="#C4C4C4"/>
<circle cx="220.738" cy="120.777" r="0.375" fill="#C4C4C4"/>
<circle cx="220.738" cy="372.621" r="0.375" fill="#C4C4C4"/>
<circle cx="220.738" cy="57.8163" r="0.375" fill="#C4C4C4"/>
<circle cx="220.738" cy="309.66" r="0.375" fill="#C4C4C4"/>
<circle cx="220.738" cy="183.738" r="0.375" fill="#C4C4C4"/>
<circle cx="220.738" cy="435.582" r="0.375" fill="#C4C4C4"/>
<circle cx="220.738" cy="230.959" r="0.375" fill="#C4C4C4"/>
<circle cx="220.738" cy="105.037" r="0.375" fill="#C4C4C4"/>
<circle cx="220.738" cy="356.881" r="0.375" fill="#C4C4C4"/>
<circle cx="220.738" cy="42.0761" r="0.375" fill="#C4C4C4"/>
<circle cx="220.738" cy="293.92" r="0.375" fill="#C4C4C4"/>
<circle cx="220.738" cy="167.998" r="0.375" fill="#C4C4C4"/>
<circle cx="220.738" cy="419.841" r="0.375" fill="#C4C4C4"/>
<circle cx="220.738" cy="10.5956" r="0.375" fill="#C4C4C4"/>
<circle cx="220.738" cy="262.439" r="0.375" fill="#C4C4C4"/>
<circle cx="220.738" cy="136.517" r="0.375" fill="#C4C4C4"/>
<circle cx="220.738" cy="388.361" r="0.375" fill="#C4C4C4"/>
<circle cx="220.738" cy="73.5566" r="0.375" fill="#C4C4C4"/>
<circle cx="220.738" cy="325.4" r="0.375" fill="#C4C4C4"/>
<circle cx="220.738" cy="199.478" r="0.375" fill="#C4C4C4"/>
<circle cx="220.738" cy="451.322" r="0.375" fill="#C4C4C4"/>
<circle cx="173.517" cy="215.219" r="0.375" fill="#C4C4C4"/>
<circle cx="173.517" cy="89.2968" r="0.375" fill="#C4C4C4"/>
<circle cx="173.517" cy="341.14" r="0.375" fill="#C4C4C4"/>
<circle cx="173.517" cy="26.3359" r="0.375" fill="#C4C4C4"/>
<circle cx="173.517" cy="278.179" r="0.375" fill="#C4C4C4"/>
<circle cx="173.517" cy="152.258" r="0.375" fill="#C4C4C4"/>
<circle cx="173.517" cy="404.101" r="0.375" fill="#C4C4C4"/>
<circle cx="173.517" cy="246.699" r="0.375" fill="#C4C4C4"/>
<circle cx="173.517" cy="120.777" r="0.375" fill="#C4C4C4"/>
<circle cx="173.517" cy="372.621" r="0.375" fill="#C4C4C4"/>
<circle cx="173.517" cy="57.8163" r="0.375" fill="#C4C4C4"/>
<circle cx="173.517" cy="309.66" r="0.375" fill="#C4C4C4"/>
<circle cx="173.517" cy="183.738" r="0.375" fill="#C4C4C4"/>
<circle cx="173.517" cy="435.582" r="0.375" fill="#C4C4C4"/>
<circle cx="173.517" cy="230.959" r="0.375" fill="#C4C4C4"/>
<circle cx="173.517" cy="105.037" r="0.375" fill="#C4C4C4"/>
<circle cx="173.517" cy="356.881" r="0.375" fill="#C4C4C4"/>
<circle cx="173.517" cy="42.0761" r="0.375" fill="#C4C4C4"/>
<circle cx="173.517" cy="293.92" r="0.375" fill="#C4C4C4"/>
<circle cx="173.517" cy="167.998" r="0.375" fill="#C4C4C4"/>
<circle cx="173.517" cy="419.841" r="0.375" fill="#C4C4C4"/>
<circle cx="173.517" cy="10.5956" r="0.375" fill="#C4C4C4"/>
<circle cx="173.517" cy="262.439" r="0.375" fill="#C4C4C4"/>
<circle cx="173.517" cy="136.517" r="0.375" fill="#C4C4C4"/>
<circle cx="173.517" cy="388.361" r="0.375" fill="#C4C4C4"/>
<circle cx="173.517" cy="73.5566" r="0.375" fill="#C4C4C4"/>
<circle cx="173.517" cy="325.4" r="0.375" fill="#C4C4C4"/>
<circle cx="173.517" cy="199.478" r="0.375" fill="#C4C4C4"/>
<circle cx="173.517" cy="451.322" r="0.375" fill="#C4C4C4"/>
<circle cx="236.478" cy="215.219" r="0.375" fill="#C4C4C4"/>
<circle cx="236.478" cy="89.2968" r="0.375" fill="#C4C4C4"/>
<circle cx="236.478" cy="341.14" r="0.375" fill="#C4C4C4"/>
<circle cx="236.478" cy="26.3359" r="0.375" fill="#C4C4C4"/>
<circle cx="236.478" cy="278.179" r="0.375" fill="#C4C4C4"/>
<circle cx="236.478" cy="152.258" r="0.375" fill="#C4C4C4"/>
<circle cx="236.478" cy="404.101" r="0.375" fill="#C4C4C4"/>
<circle cx="236.478" cy="246.699" r="0.375" fill="#C4C4C4"/>
<circle cx="236.478" cy="120.777" r="0.375" fill="#C4C4C4"/>
<circle cx="236.478" cy="372.621" r="0.375" fill="#C4C4C4"/>
<circle cx="236.478" cy="57.8163" r="0.375" fill="#C4C4C4"/>
<circle cx="236.478" cy="309.66" r="0.375" fill="#C4C4C4"/>
<circle cx="236.478" cy="183.738" r="0.375" fill="#C4C4C4"/>
<circle cx="236.478" cy="435.582" r="0.375" fill="#C4C4C4"/>
<circle cx="236.478" cy="230.959" r="0.375" fill="#C4C4C4"/>
<circle cx="236.478" cy="105.037" r="0.375" fill="#C4C4C4"/>
<circle cx="236.478" cy="356.881" r="0.375" fill="#C4C4C4"/>
<circle cx="236.478" cy="42.0761" r="0.375" fill="#C4C4C4"/>
<circle cx="236.478" cy="293.92" r="0.375" fill="#C4C4C4"/>
<circle cx="236.478" cy="167.998" r="0.375" fill="#C4C4C4"/>
<circle cx="236.478" cy="419.841" r="0.375" fill="#C4C4C4"/>
<circle cx="236.478" cy="10.5956" r="0.375" fill="#C4C4C4"/>
<circle cx="236.478" cy="136.517" r="0.375" fill="#C4C4C4"/>
<circle cx="236.478" cy="388.361" r="0.375" fill="#C4C4C4"/>
<circle cx="236.478" cy="73.5566" r="0.375" fill="#C4C4C4"/>
<circle cx="236.478" cy="325.4" r="0.375" fill="#C4C4C4"/>
<circle cx="236.478" cy="199.478" r="0.375" fill="#C4C4C4"/>
<circle cx="236.478" cy="451.322" r="0.375" fill="#C4C4C4"/>
<circle cx="236.853" cy="262.814" r="0.75" fill="#C4C4C4"/>
</g>
<defs>
<clipPath id="clip0">
<rect width="237" height="488" fill="white"/>
</clipPath>
</defs>
</svg>
